HIERARCHY
ROOT Hips
{
	OFFSET	0.00	0.00	0.00
	CHANNELS 6 Xposition Yposition Zposition Zrotation Xrotation Yrotation
	JOINT LeftUpLeg
	{
		OFFSET	 0.126116	-0.014019	-0.065224
		CHANNELS 3 Zrotation Xrotation Yrotation
		JOINT LeftLeg
		{
			OFFSET	 0.000000	 0.000000	 0.569914
			CHANNELS 3 Zrotation Xrotation Yrotation
			JOINT LeftFoot
			{
				OFFSET	 0.000000	 0.000000	 0.544423
				CHANNELS 3 Zrotation Xrotation Yrotation
				JOINT LeftToeBase
				{
					OFFSET	 0.000000	 0.000000	 0.207117
					CHANNELS 3 Zrotation Xrotation Yrotation
					End Site
					{
						OFFSET	 0.000000	 0.000000	 0.207117
					}
				}
			}
		}
	}
	JOINT RightUpLeg
	{
		OFFSET	-0.124023	-0.008373	-0.065224
		CHANNELS 3 Zrotation Xrotation Yrotation
		JOINT RightLeg
		{
			OFFSET	 0.000000	 0.000000	 0.570047
			CHANNELS 3 Zrotation Xrotation Yrotation
			JOINT RightFoot
			{
				OFFSET	 0.000000	 0.000000	 0.544354
				CHANNELS 3 Zrotation Xrotation Yrotation
				JOINT RightToeBase
				{
					OFFSET	 0.000000	 0.000000	 0.207540
					CHANNELS 3 Zrotation Xrotation Yrotation
					End Site
					{
						OFFSET	 0.000000	 0.000000	 0.207540
					}
				}
			}
		}
	}
	JOINT Spine
	{
		OFFSET	 0.000184	-0.007763	 0.117403
		CHANNELS 3 Zrotation Xrotation Yrotation
		JOINT Spine1
		{
			OFFSET	 0.000000	 0.000000	 0.137269
			CHANNELS 3 Zrotation Xrotation Yrotation
			JOINT Spine2
			{
				OFFSET	 0.000000	 0.000000	 0.156879
				CHANNELS 3 Zrotation Xrotation Yrotation
				JOINT LeftShoulder
				{
					OFFSET	 0.080501	-0.002496	 0.160144
					CHANNELS 3 Zrotation Xrotation Yrotation
					JOINT LeftArm
					{
						OFFSET	 0.000000	 0.000000	 0.164363
						CHANNELS 3 Zrotation Xrotation Yrotation
						JOINT LeftForeArm
						{
							OFFSET	 0.000000	 0.000000	 0.364576
							CHANNELS 3 Zrotation Xrotation Yrotation
							JOINT LeftHand
							{
								OFFSET	 0.000000	 0.000000	 0.360812
								CHANNELS 3 Zrotation Xrotation Yrotation
								JOINT LeftHandIndex1
								{
									OFFSET	 0.000000	 0.000000	 0.086006
									CHANNELS 3 Zrotation Xrotation Yrotation
									JOINT LeftHandIndex2
									{
										OFFSET	 0.000000	 0.000000	 0.047236
										CHANNELS 3 Zrotation Xrotation Yrotation
										JOINT LeftHandIndex3
										{
											OFFSET	-0.004284	-0.000551	 0.038166
											CHANNELS 3 Zrotation Xrotation Yrotation
											End Site
											{
												OFFSET	-0.004284	-0.000551	 0.038166
											}
										}
									}
								}
							}
						}
					}
				}
				JOINT Neck
				{
					OFFSET	 0.000000	 0.000000	 0.176489
					CHANNELS 3 Zrotation Xrotation Yrotation
					JOINT Head
					{
						OFFSET	 0.000000	-0.001747	 0.077940
						CHANNELS 3 Zrotation Xrotation Yrotation
						End Site
						{
							OFFSET	 0.000000	-0.001747	 0.077940
						}
					}
				}
				JOINT RightShoulder
				{
					OFFSET	-0.080363	 0.000306	 0.159706
					CHANNELS 3 Zrotation Xrotation Yrotation
					JOINT RightArm
					{
						OFFSET	 0.000000	 0.000000	 0.164196
						CHANNELS 3 Zrotation Xrotation Yrotation
						JOINT RightForeArm
						{
							OFFSET	 0.000000	 0.000000	 0.365611
							CHANNELS 3 Zrotation Xrotation Yrotation
							JOINT RightHand
							{
								OFFSET	 0.000000	 0.000000	 0.360648
								CHANNELS 3 Zrotation Xrotation Yrotation
								JOINT RightHandIndex1
								{
									OFFSET	 0.000000	 0.000000	 0.069977
									CHANNELS 3 Zrotation Xrotation Yrotation
									JOINT RightHandIndex2
									{
										OFFSET	 0.000000	 0.000000	 0.052305
										CHANNELS 3 Zrotation Xrotation Yrotation
										JOINT RightHandIndex3
										{
											OFFSET	 0.009002	-0.000782	 0.042196
											CHANNELS 3 Zrotation Xrotation Yrotation
											End Site
											{
												OFFSET	 0.009002	-0.000782	 0.042196
											}
										}
									}
								}
							}
						}
					}
				}
			}
		}
	}
}
MOTION
Frames:    4
Frame Time: 0.03333334
-0.000496	 0.044439	 1.279808	-0.036031	 3.300641	 0.448309	-11.491520	-5.591682	 179.540000	 2.142383	-11.215340	 0.498022	-0.071877	 70.074730	 0.013639	-2.385833	 28.452750	 0.000004	 18.914180	-4.994231	-179.406200	-0.799852	-9.438010	 0.714062	 5.082950	 68.894820	 1.223987	 2.384659	 28.388700	-0.000001	-6.152371	 6.825278	 1.526428	-3.149462	-5.728199	-0.600056	 9.592610	 8.424698	-0.787625	-90.989620	 68.574280	-177.433000	-6.806376	 0.779445	 2.163393	 22.247050	-9.636177	-38.858040	-8.279120	-30.125620	-5.096206	-2.027600	 6.559038	 9.033609	-5.188889	 0.308190	 3.541030	-5.234859	 0.342567	 0.430617	 4.696763	 21.050590	-7.710044	 4.998126	-16.253630	 2.287775	 88.752720	 66.896450	 176.867300	 8.129118	 4.781407	 8.885174	-27.128250	-7.379789	 19.960380	 5.576145	-29.496870	 6.303050	 1.803333	 3.979147	-15.098590	 4.898592	 3.004813	-9.310344	 5.224449	 0.395017	 2.014677
-0.000956	 0.046649	 1.281507	 0.031111	 4.098250	 0.476487	-11.680200	-6.116827	 179.274200	 2.092685	-10.345570	 0.460022	-0.715682	 69.458320	 0.708536	-2.385833	 28.452750	 0.000004	 18.829470	-5.237740	-179.085400	-0.813964	-8.030432	 0.606357	 5.278780	 67.902140	 0.985780	 2.384659	 28.388700	-0.000001	-5.961599	 7.180254	 1.617483	-3.167880	-7.499043	-0.876970	 9.406495	 10.092780	-0.893335	-90.886570	 67.857610	-177.233900	-6.435671	 0.667807	 1.632978	 21.752910	-9.460256	-39.586030	-7.466765	-32.063560	-5.753425	-2.027600	 6.559038	 9.033609	-5.188889	 0.308190	 3.541030	-5.234859	 0.342567	 0.430617	 4.732876	 23.241780	-8.341666	 5.234333	-18.130740	 2.433221	 88.554110	 65.511350	 176.541800	 7.422300	 3.750493	 9.698707	-26.961280	-7.557327	 20.573690	 4.121380	-30.830170	 6.027794	 1.803333	 3.979147	-15.098590	 4.898592	 3.004813	-9.310344	 5.224449	 0.395017	 2.014677
-0.001986	 0.053279	 1.285395	 0.213235	 6.299556	 0.603730	-11.986970	-7.527083	 178.491900	 2.103420	-7.819354	 0.343057	-2.336756	 67.722480	 2.510504	-2.385832	 28.452790	-0.000001	 18.373970	-4.189470	-178.098500	-1.321096	-0.513738	 0.034353	 5.651344	 63.470460	 1.032470	 2.384659	 28.388700	-0.000001	-5.264455	 7.855411	 1.668203	-3.226159	-12.083480	-1.442611	 8.563396	 13.953270	-1.152754	-90.838770	 65.747780	-177.416800	-4.786804	 0.715303	 1.394567	 19.522990	-8.105323	-41.634390	-7.697472	-36.476340	-8.143745	-2.027600	 6.559038	 9.033609	-5.188889	 0.308190	 3.541030	-5.234859	 0.342567	 0.430617	 4.320449	 26.329880	-8.824542	 5.247603	-21.044630	 2.411695	 88.387050	 62.183970	 176.608600	 5.240160	 1.915814	 10.452330	-25.740320	-7.670542	 22.227080	 1.528449	-33.873740	 6.336391	 1.803333	 3.979147	-15.098590	 4.898592	 3.004813	-9.310344	 5.224449	 0.395017	 2.014677
-0.002321	 0.061963	 1.286983	 0.604281	 8.903197	 0.649945	-12.579410	-10.448640	 177.626600	 1.971630	-7.226984	 0.300605	-3.826312	 66.507370	 4.323298	-2.385833	 28.452760	 0.000004	 17.822550	-7.276542	-177.222300	-1.617306	-0.512635	 0.031616	 7.482416	 62.799670	-0.721533	 2.384659	 28.388700	-0.000001	-4.518603	 7.744659	 1.503612	-3.244534	-16.893640	-1.842072	 7.374187	 17.132360	-1.111334	-91.585270	 64.795640	-179.497700	-2.315068	 2.794617	 4.302730	 17.976180	-7.219275	-43.798930	-9.096612	-39.837600	-10.760870	-2.027600	 6.559038	 9.033609	-5.188889	 0.308190	 3.541030	-5.234859	 0.342567	 0.430617	 3.665251	 26.984130	-8.734286	 4.693468	-22.264030	 2.274174	 89.072170	 60.899730	 178.351400	 2.222311	 3.322940	 8.110332	-24.713530	-7.850085	 23.989730	-0.230938	-36.890470	 6.968462	 1.803333	 3.979147	-15.098590	 4.898592	 3.004813	-9.310344	 5.224449	 0.395017	 2.014677
